<svg width="128" height="128" viewBox="0 0 128 128" xmlns="http://www.w3.org/2000/svg">
  <defs>
    <!-- Bristle Texture -->
    <filter id="bristleTexture">
      <feTurbulence type="fractalNoise" baseFrequency="0.8" numOctaves="4" result="noise" />
      <feColorMatrix type="matrix" values="0 0 0 0 0.2  0 0 0 0 0.1  0 0 0 0 0  0 0 0 0.3 0" in="noise" result="coloredNoise" />
      <feComposite operator="in" in="coloredNoise" in2="SourceGraphic" result="composite" />
      <feBlend mode="multiply" in="composite" in2="SourceGraphic" />
    </filter>
    
    <filter id="dropShadow" x="-20%" y="-20%" width="140%" height="140%">
      <feGaussianBlur in="SourceAlpha" stdDeviation="2"/>
      <feOffset dx="1" dy="2" result="offsetblur"/>
      <feComponentTransfer>
        <feFuncA type="linear" slope="0.4"/>
      </feComponentTransfer>
      <feMerge> 
        <feMergeNode/>
        <feMergeNode in="SourceGraphic"/> 
      </feMerge>
    </filter>

    <radialGradient id="boarBody" cx="50%" cy="40%" r="60%">
      <stop offset="0%" style="stop-color:#8D6E63;stop-opacity:1" />
      <stop offset="100%" style="stop-color:#5D4037;stop-opacity:1" />
    </radialGradient>
  </defs>

  <g filter="url(#dropShadow)">
    <!-- Back Legs -->
    <path d="M40,90 L40,115 L50,115 L50,90" fill="#3E2723" />
    <path d="M80,90 L80,115 L90,115 L90,90" fill="#3E2723" />

    <!-- Body -->
    <ellipse cx="64" cy="75" rx="40" ry="32" fill="url(#boarBody)" filter="url(#bristleTexture)" />
    
    <!-- Front Legs -->
    <path d="M45,95 L45,120 L55,120 L55,95" fill="#5D4037" />
    <path d="M75,95 L75,120 L85,120 L85,95" fill="#5D4037" />

    <!-- Head -->
    <path d="M90,50 Q120,60 120,75 Q120,90 90,100 Q80,75 90,50" fill="#6D4C41" filter="url(#bristleTexture)" />
    
    <!-- Snout -->
    <ellipse cx="118" cy="75" rx="6" ry="10" fill="#FAA0A0" /> 
    <circle cx="116" cy="72" r="1" fill="#333" />
    <circle cx="116" cy="78" r="1" fill="#333" />

    <!-- Eye -->
    <circle cx="98" cy="65" r="2.5" fill="#000" />
    
    <!-- Tusks -->
    <path d="M108,82 Q115,75 120,68" stroke="#ECEFF1" stroke-width="3" fill="none" />
    <path d="M108,85 Q115,90 120,95" stroke="#ECEFF1" stroke-width="3" fill="none" />

    <!-- Ears -->
    <path d="M85,55 L80,40 L95,50 Z" fill="#5D4037" />
    
    <!-- Mohawk/Mane -->
    <path d="M40,43 L50,38 L60,43 L70,38 L80,43" stroke="#3E2723" stroke-width="4" fill="none" stroke-linecap="round" />

    <!-- Tail -->
    <path d="M25,75 Q15,70 15,65" stroke="#8D6E63" stroke-width="2" fill="none" />
  </g>
</svg>