<svg width="64" height="64" viewBox="0 0 64 64" xmlns="http://www.w3.org/2000/svg">
    <!-- Carrot body -->
    <path d="M28 22 Q26 35 28 45 Q30 52 32 56 Q34 52 36 45 Q38 35 36 22 Z" 
          fill="#FF8C00" stroke="#D97000" stroke-width="1"/>
    <!-- Carrot ridges -->
    <path d="M28 28 Q32 29 36 28" stroke="#D97000" fill="none" stroke-width="0.8"/>
    <path d="M27 34 Q32 35 37 34" stroke="#D97000" fill="none" stroke-width="0.8"/>
    <path d="M27 40 Q32 41 37 40" stroke="#D97000" fill="none" stroke-width="0.8"/>
    <path d="M28 46 Q32 47 36 46" stroke="#D97000" fill="none" stroke-width="0.8"/>
    <!-- Highlight -->
    <path d="M30 24 Q31 38 31 50" stroke="#FFB84D" stroke-width="1.5" opacity="0.6"/>
    <!-- Green leaves -->
    <path d="M28 22 Q26 18 24 14 Q22 10 20 6" stroke="#2E7D32" stroke-width="2" fill="none"/>
    <path d="M30 20 Q28 14 26 8" stroke="#388E3C" stroke-width="2" fill="none"/>
    <path d="M32 20 Q32 12 32 4" stroke="#43A047" stroke-width="2.5" fill="none"/>
    <path d="M34 20 Q36 14 38 8" stroke="#388E3C" stroke-width="2" fill="none"/>
    <path d="M36 22 Q38 18 40 14 Q42 10 44 6" stroke="#2E7D32" stroke-width="2" fill="none"/>
    <!-- Leaf details -->
    <path d="M24 14 L22 12" stroke="#1B5E20" stroke-width="1" opacity="0.6"/>
    <path d="M26 8 L24 7" stroke="#1B5E20" stroke-width="1" opacity="0.6"/>
    <path d="M38 8 L40 7" stroke="#1B5E20" stroke-width="1" opacity="0.6"/>
</svg>
