<svg width="128" height="128" viewBox="0 0 128 128" xmlns="http://www.w3.org/2000/svg">
  <defs>
    <!-- Bristle Texture -->
    <filter id="bristleTexture">
      <feTurbulence type="fractalNoise" baseFrequency="0.8" numOctaves="4" result="noise" />
      <feColorMatrix type="matrix" values="0 0 0 0 0.2  0 0 0 0 0.1  0 0 0 0 0.1  0 0 0 0.4 0" in="noise" result="coloredNoise" />
      <feComposite operator="in" in="coloredNoise" in2="SourceGraphic" result="composite" />
      <feBlend mode="multiply" in="composite" in2="SourceGraphic" />
    </filter>
    
    <filter id="dropShadow" x="-20%" y="-20%" width="140%" height="140%">
      <feGaussianBlur in="SourceAlpha" stdDeviation="2"/>
      <feOffset dx="1" dy="2" result="offsetblur"/>
      <feComponentTransfer>
        <feFuncA type="linear" slope="0.4"/>
      </feComponentTransfer>
      <feMerge> 
        <feMergeNode/>
        <feMergeNode in="SourceGraphic"/> 
      </feMerge>
    </filter>

    <radialGradient id="boarBody" cx="50%" cy="40%" r="60%">
      <stop offset="0%" style="stop-color:#795548;stop-opacity:1" /> <!-- Slightly desaturated -->
      <stop offset="100%" style="stop-color:#4E342E;stop-opacity:1" />
    </radialGradient>
  </defs>

  <g filter="url(#dropShadow)" transform="rotate(90 64 64)">
    <!-- Back Legs -->
    <path d="M40,90 L40,115 L50,115 L50,90" fill="#3E2723" />
    <path d="M80,90 L80,115 L90,115 L90,90" fill="#3E2723" />

    <!-- Body -->
    <ellipse cx="64" cy="75" rx="40" ry="32" fill="url(#boarBody)" filter="url(#bristleTexture)" />
    
    <!-- Front Legs -->
    <path d="M45,95 L45,120 L55,120 L55,95" fill="#4E342E" />
    <path d="M75,95 L75,120 L85,120 L85,95" fill="#4E342E" />

    <!-- Head -->
    <path d="M90,50 Q120,60 120,75 Q120,90 90,100 Q80,75 90,50" fill="#5D4037" filter="url(#bristleTexture)" />
    
    <!-- Snout -->
    <ellipse cx="118" cy="75" rx="6" ry="10" fill="#EF9A9A" /> 
    <circle cx="116" cy="72" r="1" fill="#333" />
    <circle cx="116" cy="78" r="1" fill="#333" />

    <!-- Dead Eye (X) -->
    <path d="M96,63 L100,67 M100,63 L96,67" stroke="#000" stroke-width="2" />
    
    <!-- Tusks -->
    <path d="M108,82 Q115,75 120,68" stroke="#CFD8DC" stroke-width="3" fill="none" />
    <path d="M108,85 Q115,90 120,95" stroke="#CFD8DC" stroke-width="3" fill="none" />

    <!-- Ears -->
    <path d="M85,55 L80,40 L95,50 Z" fill="#4E342E" />
    
    <!-- Mohawk/Mane - Flattened -->
    <path d="M40,43 L80,43" stroke="#3E2723" stroke-width="4" fill="none" stroke-linecap="round" />

    <!-- Tongue -->
    <path d="M115,80 Q118,85 115,90" stroke="#E57373" stroke-width="3" fill="none" />
  </g>
</svg>