<svg width="128" height="128" viewBox="0 0 128 128" xmlns="http://www.w3.org/2000/svg">
  <defs>
    <!-- Scale Texture -->
    <filter id="scales">
      <feTurbulence type="fractalNoise" baseFrequency="0.2" numOctaves="2" result="noise" />
      <feColorMatrix type="matrix" values="0 0 0 0 0.1  0 0 0 0 0.4  0 0 0 0 0.8  0 0 0 0.4 0" in="noise" result="coloredNoise" />
      <feComposite operator="in" in="coloredNoise" in2="SourceGraphic" result="composite" />
    </filter>
    
    <linearGradient id="fishBody" x1="0%" y1="0%" x2="100%" y2="0%">
      <stop offset="0%" style="stop-color:#90CAF9;stop-opacity:1" />
      <stop offset="50%" style="stop-color:#42A5F5;stop-opacity:1" />
      <stop offset="100%" style="stop-color:#1E88E5;stop-opacity:1" />
    </linearGradient>

    <filter id="dropShadow" x="-20%" y="-20%" width="140%" height="140%">
      <feGaussianBlur in="SourceAlpha" stdDeviation="2"/>
      <feOffset dx="1" dy="2" result="offsetblur"/>
      <feComponentTransfer>
        <feFuncA type="linear" slope="0.4"/>
      </feComponentTransfer>
      <feMerge> 
        <feMergeNode/>
        <feMergeNode in="SourceGraphic"/> 
      </feMerge>
    </filter>
  </defs>

  <g transform="rotate(45 64 64)" filter="url(#dropShadow)">
    <!-- Tail -->
    <path d="M10,64 L30,44 L30,84 Z" fill="#EF5350" />

    <!-- Body -->
    <ellipse cx="70" cy="64" rx="50" ry="25" fill="url(#fishBody)" filter="url(#scales)" />
    
    <!-- Fins -->
    <path d="M60,39 L80,20 L90,39 Z" fill="#EF5350" opacity="0.8" /> <!-- Top Fin -->
    <path d="M60,89 L80,108 L90,89 Z" fill="#EF5350" opacity="0.8" /> <!-- Bottom Fin -->
    <path d="M80,64 L90,55 L90,73 Z" fill="#EF5350" opacity="0.8" /> <!-- Side Fin -->

    <!-- Head Details -->
    <path d="M95,64 Q105,44 120,64 Q105,84 95,64" fill="none" /> <!-- Gill Curve -->
    
    <!-- Eye -->
    <circle cx="105" cy="55" r="4" fill="#FFF" />
    <circle cx="105" cy="55" r="1.5" fill="#000" />
    
    <!-- Mouth -->
    <path d="M118,64 L110,68" stroke="#0D47A1" stroke-width="1" />
  </g>
</svg>