<svg width="128" height="128" viewBox="0 0 128 128" xmlns="http://www.w3.org/2000/svg">
    <defs>
        <radialGradient id="skinBase" cx="50%" cy="50%" r="50%" fx="60%" fy="40%">
            <stop offset="0%" style="stop-color:#FFCCBC;stop-opacity:1" />
            <stop offset="100%" style="stop-color:#D84315;stop-opacity:1" />
        </radialGradient>
        <linearGradient id="tunicGrad" x1="0%" y1="0%" x2="0%" y2="100%">
            <stop offset="0%" style="stop-color:#A1887F;stop-opacity:1" />
            <stop offset="100%" style="stop-color:#5D4037;stop-opacity:1" />
        </linearGradient>
        <linearGradient id="pantsGrad" x1="0%" y1="0%" x2="0%" y2="100%">
            <stop offset="0%" style="stop-color:#424242;stop-opacity:1" />
            <stop offset="100%" style="stop-color:#212121;stop-opacity:1" />
        </linearGradient>
        <filter id="bodyShadow">
            <feGaussianBlur in="SourceAlpha" stdDeviation="2"/>
            <feOffset dx="0" dy="4" result="offsetblur"/>
            <feMerge> 
                <feMergeNode/>
                <feMergeNode in="SourceGraphic"/> 
            </feMerge>
        </filter>
        <filter id="fabricTexture">
             <feTurbulence type="fractalNoise" baseFrequency="0.8" numOctaves="3" result="noise"/>
             <feColorMatrix type="matrix" values="1 0 0 0 0  0 1 0 0 0  0 0 1 0 0  0 0 0 0.1 0" in="noise" result="coloredNoise"/>
             <feComposite operator="in" in="coloredNoise" in2="SourceGraphic" result="composite"/>
             <feBlend mode="multiply" in="composite" in2="SourceGraphic"/>
        </filter>
    </defs>

    <g filter="url(#bodyShadow)">
        <!-- Legs (Pants) -->
        <path d="M50 110 L 50 80 L 78 80 L 78 110" stroke="#212121" stroke-width="14" fill="none" stroke-linecap="round" />
        <path d="M50 110 L 50 80 L 78 80 L 78 110" stroke="url(#pantsGrad)" stroke-width="12" fill="none" stroke-linecap="round" />

        <!-- Boots -->
        <path d="M44 110 L 56 110 L 56 118 Q 50 124 44 118 Z" fill="#3E2723" />
        <path d="M72 110 L 84 110 L 84 118 Q 78 124 72 118 Z" fill="#3E2723" />

        <!-- Torso -->
        <path d="M40 85 L 36 45 L 92 45 L 88 85 Q 64 90 40 85" fill="url(#tunicGrad)" stroke="#3E2723" stroke-width="1" />
        <!-- Fabric Texture Overlay -->
        <path d="M40 85 L 36 45 L 92 45 L 88 85 Q 64 90 40 85" fill="url(#tunicGrad)" filter="url(#fabricTexture)" opacity="0.5" />

        <!-- Belt -->
        <path d="M38 75 L 90 75 L 89 82 L 39 82 Z" fill="#3E2723" stroke="#212121" stroke-width="1" />
        <rect x="60" y="74" width="8" height="9" fill="#FFB300" rx="1" stroke="#E65100" stroke-width="0.5"/>

        <!-- Arms -->
        <g transform="rotate(-10 36 50)">
             <path d="M36 50 L 30 75" stroke="#A1887F" stroke-width="12" stroke-linecap="round" />
             <!-- Hand -->
             <circle cx="30" cy="78" r="7" fill="url(#skinBase)" />
        </g>
        <g transform="rotate(10 92 50)">
             <path d="M92 50 L 98 75" stroke="#A1887F" stroke-width="12" stroke-linecap="round" />
             <!-- Hand -->
             <circle cx="98" cy="78" r="7" fill="url(#skinBase)" />
        </g>

        <!-- Head Group -->
        <g transform="translate(0, -5)">
            <!-- Neck -->
            <rect x="56" y="40" width="16" height="10" fill="#D84315" />

            <!-- Face -->
            <path d="M40 10 Q 40 50 64 50 Q 88 50 88 10" fill="url(#skinBase)" /> <!-- Jawline -->
            <circle cx="64" cy="25" r="28" fill="url(#skinBase)" /> <!-- Main Head -->
            
            <!-- Ears -->
            <ellipse cx="36" cy="30" rx="4" ry="6" fill="#FFCCBC" />
            <ellipse cx="92" cy="30" rx="4" ry="6" fill="#FFCCBC" />

            <!-- Hair -->
            <!-- Back Hair -->
            <!-- Top Hair (Short crop) -->
            <path d="M34 25 Q 34 0 64 0 Q 94 0 94 25 Q 94 15 85 10 Q 64 5 43 10 Q 34 15 34 25" fill="#4E342E" />
            <!-- Sideburns -->
            <path d="M36 25 L 36 35 L 40 30" fill="#4E342E" />
            <path d="M92 25 L 92 35 L 88 30" fill="#4E342E" />
            
            <!-- Texture in hair -->
            <path d="M50 10 Q 64 5 78 10" stroke="#3E2723" stroke-width="1" fill="none" opacity="0.5"/>

            <!-- Face Details -->
            <!-- Eyes -->
            <g>
                <ellipse cx="54" cy="30" rx="5" ry="6" fill="white" />
                <circle cx="54" cy="30" r="2.5" fill="#212121" />
                
                <ellipse cx="74" cy="30" rx="5" ry="6" fill="white" />
                <circle cx="74" cy="30" r="2.5" fill="#212121" />
            </g>
            
            <!-- Eyebrows -->
            <path d="M50 22 Q 54 20 58 22" stroke="#4E342E" stroke-width="2" fill="none" stroke-linecap="round"/>
            <path d="M70 22 Q 74 20 78 22" stroke="#4E342E" stroke-width="2" fill="none" stroke-linecap="round"/>

            <!-- Nose -->
            <path d="M64 32 L 62 38 L 66 38 Z" fill="#D84315" opacity="0.4"/>
            
            <!-- Mouth -->
            <path d="M60 44 Q 64 46 68 44" stroke="#D84315" stroke-width="1.5" fill="none" opacity="0.8" stroke-linecap="round"/>
        </g>
    </g>
</svg>