<svg width="128" height="128" viewBox="0 0 128 128" xmlns="http://www.w3.org/2000/svg">
    <defs>
        <radialGradient id="skinBase" cx="50%" cy="50%" r="50%" fx="60%" fy="40%">
            <stop offset="0%" style="stop-color:#FFCCBC;stop-opacity:1" />
            <stop offset="100%" style="stop-color:#D84315;stop-opacity:1" />
        </radialGradient>
        <linearGradient id="dressGrad" x1="0%" y1="0%" x2="0%" y2="100%">
            <stop offset="0%" style="stop-color:#BCAAA4;stop-opacity:1" />
            <stop offset="100%" style="stop-color:#8D6E63;stop-opacity:1" />
        </linearGradient>
        <filter id="bodyShadow">
            <feGaussianBlur in="SourceAlpha" stdDeviation="2"/>
            <feOffset dx="0" dy="4" result="offsetblur"/>
            <feMerge> 
                <feMergeNode/>
                <feMergeNode in="SourceGraphic"/> 
            </feMerge>
        </filter>
        <filter id="fabricTexture">
             <feTurbulence type="fractalNoise" baseFrequency="0.6" numOctaves="3" result="noise"/>
             <feColorMatrix type="matrix" values="1 0 0 0 0  0 1 0 0 0  0 0 1 0 0  0 0 0 0.08 0" in="noise" result="coloredNoise"/>
             <feComposite operator="in" in="coloredNoise" in2="SourceGraphic" result="composite"/>
             <feBlend mode="multiply" in="composite" in2="SourceGraphic"/>
        </filter>
    </defs>

    <g filter="url(#bodyShadow)">
       <!-- Back Hair Layer (Long) -->
            <path d="M30 20 L 24 85 Q 64 95 104 85 L 98 20" fill="#212121" />
        <!-- Legs (Under dress) -->
        <path d="M54 115 L 54 90" stroke="#3E2723" stroke-width="8" stroke-linecap="round" />
        <path d="M74 115 L 74 90" stroke="#3E2723" stroke-width="8" stroke-linecap="round" />

        <!-- Dress Body -->
        <path d="M44 45 L 84 45 L 94 100 Q 64 108 34 100 Z" fill="url(#dressGrad)" stroke="#5D4037" stroke-width="1" />
        <path d="M44 45 L 84 45 L 94 100 Q 64 108 34 100 Z" fill="url(#dressGrad)" filter="url(#fabricTexture)" opacity="0.6"/>

        <!-- Sash/Belt -->
        <path d="M40 70 L 88 70 L 90 78 L 38 78 Z" fill="#5D4037" />
        <!-- Sash Knot -->
        <circle cx="80" cy="74" r="5" fill="#5D4037" />
        <path d="M80 74 L 85 90 L 75 90 Z" fill="#5D4037" />

        <!-- Arms -->
        <g transform="rotate(-15 44 50)">
             <path d="M44 50 L 34 80" stroke="#BCAAA4" stroke-width="10" stroke-linecap="round" />
             <path d="M34 80 L 34 85" stroke="#FFCCBC" stroke-width="8" stroke-linecap="round" /> <!-- Hand -->
        </g>
        <g transform="rotate(15 84 50)">
             <path d="M84 50 L 94 80" stroke="#BCAAA4" stroke-width="10" stroke-linecap="round" />
             <path d="M94 80 L 94 85" stroke="#FFCCBC" stroke-width="8" stroke-linecap="round" /> <!-- Hand -->
        </g>

        <!-- Head Group -->
        <g transform="translate(0, -5)">
           

            <!-- Neck -->
            <rect x="58" y="40" width="12" height="10" fill="#D84315" />

            <!-- Face -->
            <path d="M42 10 Q 42 52 64 52 Q 86 52 86 10" fill="url(#skinBase)" /> 
            <circle cx="64" cy="25" r="26" fill="url(#skinBase)" />
            
            <!-- Eyes (Larger, more defined) -->
            <g>
                <ellipse cx="52" cy="32" rx="6" ry="7" fill="white" />
                <circle cx="52" cy="32" r="3" fill="#3E2723" />
                <circle cx="54" cy="30" r="1" fill="white" opacity="0.8"/>
                
                <ellipse cx="76" cy="32" rx="6" ry="7" fill="white" />
                <circle cx="76" cy="32" r="3" fill="#3E2723" />
                <circle cx="78" cy="30" r="1" fill="white" opacity="0.8"/>
            </g>

            <!-- Nose -->
            <path d="M64 34 L 63 39 L 65 39 Z" fill="#D84315" opacity="0.4"/>
            
            <!-- Mouth -->
            <path d="M58 46 Q 64 48 70 46" stroke="#D84315" stroke-width="1.5" fill="none" opacity="0.8" stroke-linecap="round"/>
            <path d="M58 46 Q 64 50 70 46" fill="#D84315" opacity="0.3"/> <!-- Lip tint -->

            <!-- Front Hair / Bangs -->
            <path d="M30 25 Q 30 -5 64 -5 Q 98 -5 98 25 Q 98 45 80 20 Q 64 10 48 20 Q 30 45 30 25" fill="#212121" />
            
            <!-- Decoration -->
            <circle cx="82" cy="15" r="4" fill="#FF5252" opacity="0.8"/> <!-- Flower/Pin -->
        </g>
    </g>
</svg>