<svg width="64" height="64" viewBox="0 0 64 64" xmlns="http://www.w3.org/2000/svg">
    <!-- Main rock body -->
    <ellipse cx="32" cy="42" rx="20" ry="14" fill="#707070"/>
    <path d="M18 38 Q15 32 18 26 L28 22 L38 20 L46 24 Q50 28 48 34 L42 40 Z" 
          fill="#888888"/>
    <!-- Lighter top facets -->
    <path d="M22 30 L28 24 L36 23 L32 28 Z" fill="#A0A0A0" opacity="0.8"/>
    <path d="M36 23 L42 26 L40 32 L36 30 Z" fill="#989898" opacity="0.8"/>
    <!-- Shadow/darker areas -->
    <path d="M18 36 L22 40 L28 38 L24 34 Z" fill="#606060" opacity="0.6"/>
    <path d="M38 32 L44 34 L42 38 Z" fill="#606060" opacity="0.5"/>
    <!-- Surface texture -->
    <circle cx="26" cy="28" r="1.5" fill="#707070" opacity="0.5"/>
    <circle cx="36" cy="26" r="1" fill="#606060" opacity="0.4"/>
    <circle cx="40" cy="30" r="1.2" fill="#707070" opacity="0.5"/>
</svg>
