<svg width="128" height="128" viewBox="0 0 128 128" xmlns="http://www.w3.org/2000/svg">
  <defs>
    <!-- Muscle Texture -->
    <filter id="muscleTexture">
      <feTurbulence type="fractalNoise" baseFrequency="0.1" numOctaves="5" result="noise" />
      <feColorMatrix type="matrix" values="0.5 0 0 0 0.4  0 0.1 0 0 0  0 0 0.1 0 0  0 0 0 1 0" in="noise" result="coloredNoise" />
      <feComposite operator="in" in="coloredNoise" in2="SourceGraphic" result="composite" />
    </filter>
    
    <filter id="dropShadow" x="-20%" y="-20%" width="140%" height="140%">
      <feGaussianBlur in="SourceAlpha" stdDeviation="2"/>
      <feOffset dx="1" dy="2" result="offsetblur"/>
      <feComponentTransfer>
        <feFuncA type="linear" slope="0.4"/>
      </feComponentTransfer>
      <feMerge> 
        <feMergeNode/>
        <feMergeNode in="SourceGraphic"/> 
      </feMerge>
    </filter>

    <linearGradient id="muscleGradient" x1="0%" y1="0%" x2="0%" y2="100%">
      <stop offset="0%" style="stop-color:#D32F2F;stop-opacity:1" />
      <stop offset="100%" style="stop-color:#8e0000;stop-opacity:1" />
    </linearGradient>
  </defs>

  <g filter="url(#dropShadow)" transform="rotate(90 64 64)">
    <!-- Bones legs -->
    <path d="M40,90 L40,115" stroke="#ECEFF1" stroke-width="4" />
    <path d="M80,90 L80,115" stroke="#ECEFF1" stroke-width="4" />

    <!-- Body -->
    <ellipse cx="64" cy="75" rx="38" ry="30" fill="url(#muscleGradient)" filter="url(#muscleTexture)" />
    
    <!-- Ribs -->
    <path d="M40,60 Q64,50 88,60" stroke="#FFCDD2" stroke-width="2" fill="none" opacity="0.6"/>
    <path d="M40,75 Q64,65 88,75" stroke="#FFCDD2" stroke-width="2" fill="none" opacity="0.6"/>
    <path d="M40,90 Q64,80 88,90" stroke="#FFCDD2" stroke-width="2" fill="none" opacity="0.6"/>

    <!-- Head -->
    <path d="M90,50 Q120,60 120,75 Q120,90 90,100 Q80,75 90,50" fill="url(#muscleGradient)" filter="url(#muscleTexture)" />
    
    <!-- Snout Bone -->
     <ellipse cx="118" cy="75" rx="4" ry="8" fill="#ECEFF1" /> 

    <!-- Eye Socket -->
    <circle cx="98" cy="65" r="3" fill="#3D0000" />
    
    <!-- Tusks (Bone) -->
    <path d="M108,82 Q115,75 120,68" stroke="#ECEFF1" stroke-width="3" fill="none" />
  </g>
</svg>