<svg width="128" height="128" viewBox="0 0 128 128" xmlns="http://www.w3.org/2000/svg">
  <defs>
    <!-- Muscle Texture -->
    <filter id="muscleTexture">
      <feTurbulence type="fractalNoise" baseFrequency="0.1" numOctaves="5" result="noise" />
      <feColorMatrix type="matrix" values="0.5 0 0 0 0.4  0 0.1 0 0 0  0 0 0.1 0 0  0 0 0 1 0" in="noise" result="coloredNoise" />
      <feComposite operator="in" in="coloredNoise" in2="SourceGraphic" result="composite" />
    </filter>
    
    <filter id="dropShadow" x="-20%" y="-20%" width="140%" height="140%">
      <feGaussianBlur in="SourceAlpha" stdDeviation="2"/>
      <feOffset dx="1" dy="2" result="offsetblur"/>
      <feComponentTransfer>
        <feFuncA type="linear" slope="0.4"/>
      </feComponentTransfer>
      <feMerge> 
        <feMergeNode/>
        <feMergeNode in="SourceGraphic"/> 
      </feMerge>
    </filter>

    <linearGradient id="muscleGradient" x1="0%" y1="0%" x2="0%" y2="100%">
      <stop offset="0%" style="stop-color:#E53935;stop-opacity:1" />
      <stop offset="100%" style="stop-color:#B71C1C;stop-opacity:1" />
    </linearGradient>
  </defs>

  <g filter="url(#dropShadow)" transform="rotate(90 64 64)">
    <!-- Bones Legs -->
    <path d="M48,80 L40,110" stroke="#ECEFF1" stroke-width="4" stroke-linecap="round" />
    <path d="M76,80 L84,110" stroke="#ECEFF1" stroke-width="4" stroke-linecap="round" />

    <!-- Body -->
    <path d="M40,50 Q40,40 50,40 L74,40 Q84,40 84,50 L88,80 Q88,90 74,90 L50,90 Q40,90 40,80 Z" fill="url(#muscleGradient)" filter="url(#muscleTexture)" />
    
    <!-- Ribs -->
    <path d="M50,50 Q62,45 74,50" stroke="#FFCDD2" stroke-width="2" fill="none" opacity="0.5"/>
    <path d="M50,60 Q62,55 74,60" stroke="#FFCDD2" stroke-width="2" fill="none" opacity="0.5"/>
    <path d="M50,70 Q62,65 74,70" stroke="#FFCDD2" stroke-width="2" fill="none" opacity="0.5"/>
    <path d="M50,80 Q62,75 74,80" stroke="#FFCDD2" stroke-width="2" fill="none" opacity="0.5"/>

    <!-- Neck Stub -->
    <path d="M75,45 Q75,30 70,25" stroke="#E53935" stroke-width="15" fill="none" transform="rotate(-30 70 45)"/>
    <circle cx="70" cy="25" r="5" fill="#B71C1C" transform="rotate(-30 70 45) translate(8, 0)" /> <!-- Gore -->

    <!-- Tail Bone -->
    <path d="M40,55 Q35,60 35,50" stroke="#ECEFF1" stroke-width="2" fill="none" />
  </g>
</svg>