<svg width="64" height="64" viewBox="0 0 64 64" xmlns="http://www.w3.org/2000/svg">
    <!-- Wooden shaft -->
    <line x1="8" y1="56" x2="48" y2="16" stroke="#8D6E63" stroke-width="4" stroke-linecap="round"/>
    <!-- Shaft highlight -->
    <line x1="10" y1="54" x2="46" y2="18" stroke="#A1887F" stroke-width="1.5" stroke-linecap="round" opacity="0.6"/>
    <!-- Wood grain -->
    <line x1="15" y1="49" x2="35" y2="29" stroke="#6D4C41" stroke-width="0.5" opacity="0.4"/>
    <line x1="20" y1="44" x2="40" y2="24" stroke="#6D4C41" stroke-width="0.5" opacity="0.4"/>
    <!-- Stone spear tip -->
    <path d="M48 16 L54 8 L58 10 L56 14 L52 20 Z" fill="#707070" stroke="#404040" stroke-width="1"/>
    <!-- Stone tip highlight -->
    <path d="M50 14 L54 10 L56 11 Z" fill="#909090" opacity="0.7"/>
    <!-- Stone tip texture -->
    <line x1="52" y1="12" x2="54" y2="16" stroke="#505050" stroke-width="0.5" opacity="0.5"/>
    <!-- Binding/lashing -->
    <line x1="46" y1="18" x2="50" y2="14" stroke="#5D4037" stroke-width="2"/>
    <path d="M46 18 L47 17 L48 16 L49 15 L50 14" stroke="#8B4513" stroke-width="0.8"/>
    <path d="M46.5 17.5 L47.5 16.5 L48.5 15.5 L49.5 14.5" stroke="#654321" stroke-width="0.5"/>
</svg>