<svg width="64" height="64" viewBox="0 0 64 64" xmlns="http://www.w3.org/2000/svg">
  <!-- Tall grass blades swaying -->
  <g fill="none" stroke-linecap="round">
    <!-- Back grass blades (darker) -->
    <path d="M12 58 Q10 40 14 20" stroke="#5a8c3a" stroke-width="3"/>
    <path d="M20 60 Q18 42 24 18" stroke="#5a8c3a" stroke-width="2.5"/>
    <path d="M52 58 Q54 38 50 22" stroke="#5a8c3a" stroke-width="3"/>
    
    <!-- Middle grass blades -->
    <path d="M16 60 Q12 45 18 25" stroke="#6b9e45" stroke-width="2.5"/>
    <path d="M28 58 Q30 40 26 15" stroke="#6b9e45" stroke-width="3"/>
    <path d="M36 60 Q34 42 38 20" stroke="#6b9e45" stroke-width="2.5"/>
    <path d="M44 58 Q46 38 42 24" stroke="#6b9e45" stroke-width="3"/>
    
    <!-- Front grass blades (lighter) -->
    <path d="M8 62 Q6 48 12 30" stroke="#7cb850" stroke-width="2"/>
    <path d="M24 62 Q26 45 22 22" stroke="#7cb850" stroke-width="2.5"/>
    <path d="M32 58 Q30 38 34 16" stroke="#7cb850" stroke-width="3"/>
    <path d="M40 62 Q38 48 44 28" stroke="#7cb850" stroke-width="2"/>
    <path d="M48 60 Q50 42 46 20" stroke="#7cb850" stroke-width="2.5"/>
    <path d="M56 62 Q58 50 54 35" stroke="#7cb850" stroke-width="2"/>
  </g>
</svg>
