<svg xmlns="http://www.w3.org/2000/svg" viewBox="0 0 64 64">
  <!-- Wild wheat - tall grass-like stalks with grain heads -->
  
  <!-- Ground base -->
  <ellipse cx="32" cy="60" rx="14" ry="4" fill="#8B7355"/>
  
  <!-- Left stalk -->
  <path d="M22 58 Q20 40 24 20" stroke="#7A9A4A" stroke-width="2" fill="none"/>
  <!-- Left wheat head -->
  <ellipse cx="24" cy="18" rx="3" ry="6" fill="#D4A843"/>
  <line x1="21" y1="14" x2="18" y2="10" stroke="#C9983A" stroke-width="1.5"/>
  <line x1="22" y1="16" x2="18" y2="13" stroke="#C9983A" stroke-width="1.5"/>
  <line x1="27" y1="14" x2="30" y2="10" stroke="#C9983A" stroke-width="1.5"/>
  <line x1="26" y1="16" x2="30" y2="13" stroke="#C9983A" stroke-width="1.5"/>
  
  <!-- Center stalk (tallest) -->
  <path d="M32 58 Q30 35 32 12" stroke="#6B8E3A" stroke-width="2.5" fill="none"/>
  <!-- Center wheat head -->
  <ellipse cx="32" cy="10" rx="4" ry="7" fill="#E8B84A"/>
  <line x1="28" y1="5" x2="24" y2="2" stroke="#D4A843" stroke-width="1.5"/>
  <line x1="29" y1="8" x2="24" y2="6" stroke="#D4A843" stroke-width="1.5"/>
  <line x1="30" y1="11" x2="25" y2="10" stroke="#D4A843" stroke-width="1.5"/>
  <line x1="36" y1="5" x2="40" y2="2" stroke="#D4A843" stroke-width="1.5"/>
  <line x1="35" y1="8" x2="40" y2="6" stroke="#D4A843" stroke-width="1.5"/>
  <line x1="34" y1="11" x2="39" y2="10" stroke="#D4A843" stroke-width="1.5"/>
  
  <!-- Right stalk -->
  <path d="M42 58 Q44 42 40 22" stroke="#7A9A4A" stroke-width="2" fill="none"/>
  <!-- Right wheat head -->
  <ellipse cx="40" cy="20" rx="3" ry="6" fill="#D4A843"/>
  <line x1="37" y1="16" x2="34" y2="12" stroke="#C9983A" stroke-width="1.5"/>
  <line x1="38" y1="18" x2="34" y2="15" stroke="#C9983A" stroke-width="1.5"/>
  <line x1="43" y1="16" x2="46" y2="12" stroke="#C9983A" stroke-width="1.5"/>
  <line x1="42" y1="18" x2="46" y2="15" stroke="#C9983A" stroke-width="1.5"/>
  
  <!-- Additional grass blades for wild look -->
  <path d="M26 58 Q28 48 25 38" stroke="#5A7E2A" stroke-width="1.5" fill="none"/>
  <path d="M38 58 Q36 50 39 40" stroke="#5A7E2A" stroke-width="1.5" fill="none"/>
</svg>
