<svg width="128" height="128" viewBox="0 0 128 128" xmlns="http://www.w3.org/2000/svg">
  <defs>
    <!-- Fur Texture -->
    <filter id="furTexture">
      <feTurbulence type="fractalNoise" baseFrequency="0.6" numOctaves="3" result="noise" />
      <feColorMatrix type="matrix" values="0 0 0 0 0  0 0 0 0 0  0 0 0 0 0  0 0 0 0.4 0" in="noise" result="coloredNoise" />
      <feComposite operator="in" in="coloredNoise" in2="SourceGraphic" result="composite" />
      <feBlend mode="multiply" in="composite" in2="SourceGraphic" />
    </filter>
    
    <!-- Drop Shadow -->
    <filter id="dropShadow" x="-20%" y="-20%" width="140%" height="140%">
      <feGaussianBlur in="SourceAlpha" stdDeviation="2"/>
      <feOffset dx="1" dy="2" result="offsetblur"/>
      <feComponentTransfer>
        <feFuncA type="linear" slope="0.4"/>
      </feComponentTransfer>
      <feMerge> 
        <feMergeNode/>
        <feMergeNode in="SourceGraphic"/> 
      </feMerge>
    </filter>

    <linearGradient id="wolfBody" x1="0%" y1="0%" x2="0%" y2="100%">
      <stop offset="0%" style="stop-color:#90A4AE;stop-opacity:1" />
      <stop offset="100%" style="stop-color:#546E7A;stop-opacity:1" />
    </linearGradient>
  </defs>

  <g filter="url(#dropShadow)">
    <!-- Back Legs -->
    <path d="M44,90 Q40,110 36,118 L46,118 Q50,110 54,90" fill="#455A64" />
    <path d="M84,90 Q88,110 92,118 L82,118 Q78,110 74,90" fill="#455A64" />

    <!-- Body -->
    <ellipse cx="64" cy="75" rx="35" ry="28" fill="url(#wolfBody)" filter="url(#furTexture)" />
    
    <!-- Front Legs -->
    <path d="M50,90 Q46,115 42,122 L52,122 Q56,115 60,90" fill="url(#wolfBody)" filter="url(#furTexture)" />
    <path d="M78,90 Q82,115 86,122 L76,122 Q72,115 68,90" fill="url(#wolfBody)" filter="url(#furTexture)" />

    <!-- Head Main -->
    <circle cx="64" cy="45" r="22" fill="#90A4AE" filter="url(#furTexture)" />
    
    <!-- Snout -->
    <path d="M56,48 Q64,65 72,48 Z" fill="#CFD8DC" />
    <ellipse cx="64" cy="58" rx="8" ry="6" fill="#37474F" /> <!-- Nose -->

    <!-- Ears -->
    <path d="M46,35 L40,15 L58,30 Z" fill="#546E7A" filter="url(#furTexture)" />
    <path d="M82,35 L88,15 L70,30 Z" fill="#546E7A" filter="url(#furTexture)" />

    <!-- Eyes (Red for hostile) -->
    <circle cx="56" cy="42" r="3" fill="#D32F2F" />
    <circle cx="72" cy="42" r="3" fill="#D32F2F" />
    
    <!-- Eyebrows (Angry) -->
    <path d="M52,38 L60,40" stroke="#37474F" stroke-width="2" stroke-linecap="round" />
    <path d="M76,38 L68,40" stroke="#37474F" stroke-width="2" stroke-linecap="round" />

    <!-- Tail -->
    <path d="M30,70 Q10,75 15,95 Q25,85 35,80" fill="#90A4AE" filter="url(#furTexture)" />
  </g>
</svg>